<svg xmlns="http://www.w3.org/2000/svg" viewBox="0 0 64 64" role="img" aria-labelledby="title">
  <title id="title">JAYABINA</title>
  <rect width="64" height="64" rx="17" fill="#0D3B2E"/>
  <path d="M32 10.5c-6.7 9.2-15.3 18.7-15.3 29.2 0 9.1 6.9 15.8 15.3 15.8s15.3-6.7 15.3-15.8C47.3 29.2 38.7 19.7 32 10.5Z" fill="#FFFFFF"/>
  <path d="M21.8 40.6c3.2 2.3 6.6 3.5 10.2 3.5 4.2 0 7.9-1.6 11.1-4.7-.2 6.7-4.8 11.2-11.1 11.2-5.8 0-10.1-3.8-10.2-10Z" fill="#48C78E"/>
  <path d="m45.4 13.7 1.3 3.6 3.6 1.3-3.6 1.3-1.3 3.6-1.3-3.6-3.6-1.3 3.6-1.3 1.3-3.6Z" fill="#9DE3BA"/>
</svg>
